<svg width="377" height="70" viewBox="0 0 377 70" fill="none" xmlns="http://www.w3.org/2000/svg">
<rect x="9" y="12" width="45" height="45" rx="5" fill="url(#paint0_linear_1_15)"/>
<path d="M31.763 49.627C29.331 49.627 27.089 49.304 25.037 48.658C22.985 48.012 21.161 46.929 19.565 45.409L22.415 40.165L22.643 39.709L23.099 39.994C23.213 40.26 23.327 40.564 23.441 40.906C23.555 41.21 23.84 41.571 24.296 41.989C25.246 42.787 26.31 43.414 27.488 43.87C28.704 44.326 30.167 44.554 31.877 44.554C33.473 44.554 34.708 44.288 35.582 43.756C36.456 43.224 36.893 42.521 36.893 41.647C36.893 40.773 36.399 40.07 35.411 39.538C34.461 39.006 32.884 38.417 30.68 37.771C27.792 37.011 25.493 35.985 23.783 34.693C22.073 33.401 21.218 31.672 21.218 29.506C21.218 27.34 22.149 25.535 24.011 24.091C25.911 22.609 28.457 21.868 31.649 21.868C36.019 21.868 39.572 23.217 42.308 25.915L39.173 30.304L38.774 30.76L38.375 30.418C38.337 30.114 38.242 29.829 38.09 29.563C37.976 29.297 37.691 28.936 37.235 28.48C36.475 27.948 35.601 27.549 34.613 27.283C33.663 26.979 32.713 26.827 31.763 26.827C30.471 26.827 29.35 27.036 28.4 27.454C27.488 27.872 27.032 28.518 27.032 29.392C27.032 30.152 27.526 30.798 28.514 31.33C29.502 31.862 31.193 32.432 33.587 33.04C36.779 33.838 39.097 34.902 40.541 36.232C41.985 37.524 42.707 39.196 42.707 41.248C42.707 42.768 42.289 44.174 41.453 45.466C40.617 46.72 39.382 47.727 37.748 48.487C36.152 49.247 34.157 49.627 31.763 49.627Z" fill="white"/>
<path d="M70.523 49.57C68.471 49.57 66.78 49.133 65.45 48.259C64.12 47.347 63.151 45.846 62.543 43.756C61.935 41.666 61.707 38.835 61.859 35.263L62.144 27.568H56.729L56.843 22.495H62.372L62.6 16.225L69.269 15.37L69.782 15.313L69.839 15.826C69.649 16.092 69.478 16.377 69.326 16.681C69.212 16.947 69.136 17.384 69.098 17.992L68.699 22.495H77.249L77.192 27.568H68.642L68.3 35.149C68.186 37.619 68.262 39.519 68.528 40.849C68.832 42.179 69.269 43.11 69.839 43.642C70.447 44.136 71.169 44.383 72.005 44.383C73.221 44.383 74.304 44.136 75.254 43.642C76.242 43.148 77.154 42.578 77.99 41.932L79.358 46.606C78.028 47.556 76.641 48.297 75.197 48.829C73.753 49.323 72.195 49.57 70.523 49.57ZM93.266 49.684C90.34 49.684 88.06 49 86.426 47.632C84.83 46.264 84.032 44.459 84.032 42.217C84.032 39.405 85.286 37.087 87.794 35.263C90.34 33.401 94.026 32.47 98.852 32.47C99.118 32.47 99.46 32.47 99.878 32.47C100.334 32.47 100.809 32.489 101.303 32.527C101.037 30.323 100.41 28.841 99.422 28.081C98.434 27.283 97.104 26.884 95.432 26.884C94.216 26.884 93.076 27.093 92.012 27.511C90.948 27.891 89.884 28.613 88.82 29.677L85.286 25.801C86.806 24.395 88.459 23.388 90.245 22.78C92.031 22.172 93.855 21.868 95.717 21.868C97.921 21.868 99.935 22.229 101.759 22.951C103.583 23.635 105.027 24.851 106.091 26.599C107.155 28.309 107.687 30.684 107.687 33.724V49H101.018V46.15C100.03 47.48 98.89 48.411 97.598 48.943C96.306 49.437 94.862 49.684 93.266 49.684ZM90.473 41.419C90.473 42.635 90.853 43.49 91.613 43.984C92.411 44.44 93.38 44.668 94.52 44.668C96.572 44.668 98.168 44.06 99.308 42.844C100.448 41.59 101.132 39.633 101.36 36.973C100.866 36.973 100.391 36.973 99.935 36.973C99.479 36.935 99.08 36.916 98.738 36.916C95.698 36.916 93.551 37.334 92.297 38.17C91.081 39.006 90.473 40.089 90.473 41.419ZM127.523 49.57C125.471 49.57 123.78 49.133 122.45 48.259C121.12 47.347 120.151 45.846 119.543 43.756C118.935 41.666 118.707 38.835 118.859 35.263L119.144 27.568H113.729L113.843 22.495H119.372L119.6 16.225L126.269 15.37L126.782 15.313L126.839 15.826C126.649 16.092 126.478 16.377 126.326 16.681C126.212 16.947 126.136 17.384 126.098 17.992L125.699 22.495H134.249L134.192 27.568H125.642L125.3 35.149C125.186 37.619 125.262 39.519 125.528 40.849C125.832 42.179 126.269 43.11 126.839 43.642C127.447 44.136 128.169 44.383 129.005 44.383C130.221 44.383 131.304 44.136 132.254 43.642C133.242 43.148 134.154 42.578 134.99 41.932L136.358 46.606C135.028 47.556 133.641 48.297 132.197 48.829C130.753 49.323 129.195 49.57 127.523 49.57ZM143.768 49V43.927H150.266V27.568H144.11V22.495H156.764V43.927H162.692V49H143.768ZM153.23 18.106C152.09 18.106 151.121 17.726 150.323 16.966C149.563 16.206 149.183 15.294 149.183 14.23C149.183 13.128 149.563 12.216 150.323 11.494C151.083 10.734 152.052 10.354 153.23 10.354C154.294 10.354 155.225 10.734 156.023 11.494C156.859 12.254 157.277 13.166 157.277 14.23C157.277 15.294 156.859 16.206 156.023 16.966C155.225 17.726 154.294 18.106 153.23 18.106ZM183.326 49.684C180.742 49.684 178.424 49.095 176.372 47.917C174.32 46.739 172.686 45.124 171.47 43.072C170.292 40.982 169.703 38.607 169.703 35.947C169.703 33.325 170.292 30.95 171.47 28.822C172.686 26.694 174.32 25.003 176.372 23.749C178.424 22.495 180.761 21.868 183.383 21.868C185.815 21.868 187.943 22.324 189.767 23.236C191.591 24.148 193.035 25.402 194.099 26.998L190.508 30.931L190.166 31.33L189.71 30.988C189.71 30.646 189.672 30.342 189.596 30.076C189.52 29.772 189.273 29.373 188.855 28.879C188.133 28.195 187.316 27.72 186.404 27.454C185.53 27.188 184.542 27.055 183.44 27.055C182.186 27.055 181.008 27.397 179.906 28.081C178.804 28.765 177.911 29.772 177.227 31.102C176.581 32.432 176.258 34.047 176.258 35.947C176.258 37.657 176.6 39.158 177.284 40.45C177.968 41.704 178.861 42.692 179.963 43.414C181.103 44.098 182.319 44.44 183.611 44.44C184.789 44.44 185.948 44.193 187.088 43.699C188.228 43.205 189.292 42.35 190.28 41.134L193.871 45.238C192.465 46.796 190.831 47.936 188.969 48.658C187.107 49.342 185.226 49.684 183.326 49.684ZM198.716 58.519L198.659 22.438H205.043V26.143C205.879 24.661 206.943 23.578 208.235 22.894C209.527 22.21 210.952 21.868 212.51 21.868C214.448 21.868 216.196 22.4 217.754 23.464C219.35 24.49 220.623 26.048 221.573 28.138C222.523 30.19 222.998 32.755 222.998 35.833C222.998 38.949 222.504 41.533 221.516 43.585C220.528 45.637 219.217 47.176 217.583 48.202C215.987 49.19 214.258 49.684 212.396 49.684C210.99 49.684 209.641 49.437 208.349 48.943C207.057 48.449 206.031 47.708 205.271 46.72V58.519H198.716ZM210.629 44.668C211.731 44.668 212.738 44.383 213.65 43.813C214.562 43.243 215.284 42.293 215.816 40.963C216.348 39.633 216.614 37.809 216.614 35.491C216.614 32.869 216.101 30.798 215.075 29.278C214.087 27.758 212.719 26.979 210.971 26.941C209.147 26.903 207.722 27.625 206.696 29.107C205.708 30.551 205.214 32.926 205.214 36.232C205.29 41.856 207.095 44.668 210.629 44.668ZM229.553 22.495H236.222L236.165 26.77C236.887 25.25 237.951 24.053 239.357 23.179C240.763 22.305 242.245 21.868 243.803 21.868C246.767 21.868 249.218 22.875 251.156 24.889L248.42 30.304L248.249 30.76L247.736 30.532C247.622 30.228 247.508 29.924 247.394 29.62C247.28 29.278 246.995 28.898 246.539 28.48C246.007 28.062 245.437 27.739 244.829 27.511C244.259 27.283 243.632 27.169 242.948 27.169C241.124 27.169 239.528 27.796 238.16 29.05C236.792 30.304 236.108 32.318 236.108 35.092V49H229.553V22.495ZM267.173 49.57C264.817 49.57 262.67 49 260.732 47.86C258.832 46.682 257.331 45.067 256.229 43.015C255.127 40.925 254.576 38.493 254.576 35.719C254.576 33.097 255.127 30.741 256.229 28.651C257.331 26.561 258.832 24.908 260.732 23.692C262.67 22.476 264.817 21.868 267.173 21.868C269.567 21.868 271.714 22.476 273.614 23.692C275.552 24.908 277.072 26.561 278.174 28.651C279.314 30.741 279.884 33.097 279.884 35.719C279.884 38.455 279.314 40.868 278.174 42.958C277.072 45.048 275.552 46.682 273.614 47.86C271.714 49 269.567 49.57 267.173 49.57ZM267.173 44.44C268.997 44.44 270.498 43.642 271.676 42.046C272.854 40.412 273.443 38.303 273.443 35.719C273.443 33.059 272.854 30.95 271.676 29.392C270.498 27.834 268.997 27.055 267.173 27.055C265.425 27.055 263.962 27.834 262.784 29.392C261.606 30.95 261.017 33.059 261.017 35.719C261.017 38.303 261.587 40.412 262.727 42.046C263.905 43.642 265.387 44.44 267.173 44.44ZM295.103 49.684C293.925 49.684 292.899 49.266 292.025 48.43C291.189 47.594 290.771 46.587 290.771 45.409C290.771 44.231 291.189 43.224 292.025 42.388C292.899 41.552 293.925 41.134 295.103 41.134C296.281 41.134 297.288 41.552 298.124 42.388C298.96 43.224 299.378 44.231 299.378 45.409C299.378 46.587 298.96 47.594 298.124 48.43C297.288 49.266 296.281 49.684 295.103 49.684ZM320.867 59.032C317.295 59.032 314.331 57.683 311.975 54.985L315.452 50.311L315.794 49.912L316.25 50.197C316.326 50.501 316.402 50.805 316.478 51.109C316.554 51.413 316.801 51.812 317.219 52.306C317.675 52.724 318.188 53.047 318.758 53.275C319.366 53.541 320.069 53.674 320.867 53.674C323.717 53.674 325.142 51.755 325.142 47.917V27.568H315.908V22.495H331.697V47.347C331.697 50.121 331.184 52.363 330.158 54.073C329.132 55.821 327.783 57.075 326.111 57.835C324.477 58.633 322.729 59.032 320.867 59.032ZM327.992 18.106C326.852 18.106 325.883 17.726 325.085 16.966C324.325 16.206 323.945 15.294 323.945 14.23C323.945 13.128 324.325 12.216 325.085 11.494C325.845 10.734 326.814 10.354 327.992 10.354C329.056 10.354 329.987 10.734 330.785 11.494C331.621 12.254 332.039 13.166 332.039 14.23C332.039 15.294 331.621 16.206 330.785 16.966C329.987 17.726 329.056 18.106 327.992 18.106ZM353.243 49.627C350.811 49.627 348.569 49.304 346.517 48.658C344.465 48.012 342.641 46.929 341.045 45.409L343.895 40.165L344.123 39.709L344.579 39.994C344.693 40.26 344.807 40.564 344.921 40.906C345.035 41.21 345.32 41.571 345.776 41.989C346.726 42.787 347.79 43.414 348.968 43.87C350.184 44.326 351.647 44.554 353.357 44.554C354.953 44.554 356.188 44.288 357.062 43.756C357.936 43.224 358.373 42.521 358.373 41.647C358.373 40.773 357.879 40.07 356.891 39.538C355.941 39.006 354.364 38.417 352.16 37.771C349.272 37.011 346.973 35.985 345.263 34.693C343.553 33.401 342.698 31.672 342.698 29.506C342.698 27.34 343.629 25.535 345.491 24.091C347.391 22.609 349.937 21.868 353.129 21.868C357.499 21.868 361.052 23.217 363.788 25.915L360.653 30.304L360.254 30.76L359.855 30.418C359.817 30.114 359.722 29.829 359.57 29.563C359.456 29.297 359.171 28.936 358.715 28.48C357.955 27.948 357.081 27.549 356.093 27.283C355.143 26.979 354.193 26.827 353.243 26.827C351.951 26.827 350.83 27.036 349.88 27.454C348.968 27.872 348.512 28.518 348.512 29.392C348.512 30.152 349.006 30.798 349.994 31.33C350.982 31.862 352.673 32.432 355.067 33.04C358.259 33.838 360.577 34.902 362.021 36.232C363.465 37.524 364.187 39.196 364.187 41.248C364.187 42.768 363.769 44.174 362.933 45.466C362.097 46.72 360.862 47.727 359.228 48.487C357.632 49.247 355.637 49.627 353.243 49.627Z" fill="url(#paint1_linear_1_15)"/>
<defs>
<linearGradient id="paint0_linear_1_15" x1="33.6113" y1="17.5189" x2="-20.2774" y2="41.4588" gradientUnits="userSpaceOnUse">
<stop stop-color="#F47BA6"/>
<stop offset="1" stop-color="#F92154"/>
</linearGradient>
<linearGradient id="paint1_linear_1_15" x1="208.421" y1="7.35849" x2="143.377" y2="175.916" gradientUnits="userSpaceOnUse">
<stop stop-color="#F47BA6"/>
<stop offset="1" stop-color="#F92154"/>
</linearGradient>
</defs>
</svg>
